<svg width="3281" height="2946" viewBox="0 0 3281 2946" fill="none" xmlns="http://www.w3.org/2000/svg">
<path d="M1034.19 421.888C1388.04 217.592 1683.96 90.0129 1921.95 39.15C2159.1 -8.61106 2365.06 16.7101 2539.83 115.114C2713.76 216.619 2877.94 401.114 3032.38 668.6C3187.95 938.053 3265.63 1172.49 3265.44 1371.9C3266.37 1573.29 3186.31 1763.75 3025.23 1943.28C2862.19 2123.96 2602.76 2317.01 2246.94 2522.44C1891.13 2727.87 1595.21 2855.45 1359.18 2905.18C1121.2 2956.04 915.235 2930.72 741.302 2829.21C568.505 2729.67 404.322 2545.18 248.753 2275.73C94.3205 2008.24 16.6342 1773.81 15.6947 1572.42C15.8907 1373.01 96.9421 1181.98 258.849 999.339C419.926 819.802 678.372 627.318 1034.19 421.888Z" fill="#EEEFEA" stroke="url(#paint0_linear_12_64)" stroke-width="30"/>
<defs>
<linearGradient id="paint0_linear_12_64" x1="2400.3" y1="1898.44" x2="562.173" y2="2986.64" gradientUnits="userSpaceOnUse">
<stop stop-color="#03923D"/>
<stop offset="0.367706" stop-color="#EE075E"/>
<stop offset="1" stop-color="#F6690C"/>
</linearGradient>
</defs>
</svg>
